<?xml version="1.0" encoding="UTF-8"?>
<svg version="1.1" xmlns="http://www.w3.org/2000/svg" width="512" height="512">
<path d="M0 0 C1.39752458 -0.00302446 2.7950475 -0.00691542 4.19256753 -0.01159257 C8.01422833 -0.02184342 11.83579501 -0.0196982 15.65746343 -0.01541197 C19.78641791 -0.01293942 23.91535004 -0.0219655 28.04429626 -0.02944946 C36.12640715 -0.04218407 44.2084848 -0.04399168 52.29060403 -0.0416492 C58.86208682 -0.0398644 65.43355954 -0.04161916 72.00504112 -0.04587364 C73.40928619 -0.04676643 73.40928619 -0.04676643 74.84189984 -0.04767724 C76.74388026 -0.04888903 78.64586068 -0.05010316 80.54784109 -0.05131962 C98.37594159 -0.06219051 116.20402316 -0.06003488 134.03212472 -0.05393478 C150.3288161 -0.04876673 166.62544768 -0.0600189 182.92212722 -0.07903299 C199.66925953 -0.09842233 216.41636356 -0.10666543 233.16350716 -0.10290974 C242.56023037 -0.10099927 251.95690269 -0.1034702 261.35361671 -0.11762428 C269.35372794 -0.12955305 277.35375697 -0.13092625 285.35386936 -0.11883412 C289.43233362 -0.11295577 293.51064764 -0.11181695 297.58910179 -0.12383652 C301.32917125 -0.13473034 305.06896567 -0.13155077 308.80902245 -0.11757483 C310.78902227 -0.11369666 312.76903448 -0.12444638 314.74900514 -0.13587171 C330.38061755 -0.04193523 343.3618259 3.9436421 354.80448914 14.81147766 C364.1615036 24.67172652 369.27433231 36.22469204 369.24223328 49.89888 C369.24215775 50.97954742 369.24208221 52.06021484 369.24200439 53.17362976 C369.23684311 54.32384613 369.23168182 55.4740625 369.22636414 56.65913391 C369.22424171 58.44427902 369.22424171 58.44427902 369.22207642 60.26548767 C369.21649209 64.05558313 369.20394239 67.84561889 369.19120789 71.63569641 C369.18619086 74.20991431 369.18162831 76.78413313 369.17753601 79.35835266 C369.16652778 85.65915418 369.14980519 91.95992103 369.12870789 98.26069641 C370.18670593 98.23974915 371.24470398 98.21880188 372.33476257 98.19721985 C376.31557816 98.12401076 380.2963362 98.07860737 384.27763367 98.04096985 C385.99030105 98.02103642 387.70290203 97.99387936 389.41532898 97.9589386 C403.92480759 97.67061465 415.25056041 99.20954804 427.12870789 108.26069641 C428.15995789 109.00319641 429.19120789 109.74569641 430.25370789 110.51069641 C438.59531582 118.48962574 444.86416692 129.49256283 445.26292896 141.20204163 C445.27234286 142.84364222 445.27623588 144.4852798 445.27587891 146.12690735 C445.27955559 147.03249043 445.28323228 147.93807352 445.28702039 148.87109852 C445.29805312 151.91242854 445.30190042 154.95372438 445.30570984 157.99507141 C445.31197491 160.1732087 445.31862175 162.35134493 445.32562256 164.52947998 C445.34666409 171.68987789 445.35702658 178.850276 445.36698914 186.01069641 C445.37103697 188.4769746 445.3751539 190.94325268 445.37933922 193.40953064 C445.39839286 204.9991539 445.41262227 216.5887708 445.42095119 228.17840672 C445.4219197 229.51198896 445.42289395 230.8455712 445.4238739 232.17915344 C445.42435764 232.84065081 445.42484138 233.50214817 445.42533978 234.18369091 C445.43414513 245.55099143 445.46307561 256.91815623 445.49745208 268.28540611 C445.52764103 278.62359442 445.5424228 288.96173529 445.5457322 299.29996681 C445.54807994 305.47188803 445.55700443 311.64363213 445.58219337 317.81550598 C445.60552685 323.62677537 445.60968595 329.43775171 445.59943199 335.24905586 C445.59893777 337.37582946 445.60522443 339.50261773 445.61898804 341.62934685 C445.72343781 358.7332014 443.77855396 372.4895654 431.90995789 385.73725891 C421.28074925 396.05587379 407.99458811 400.5959983 393.39945984 400.5160675 C392.16836487 400.52149818 392.16836487 400.52149818 390.91239929 400.52703857 C389.14790259 400.53388039 387.38338495 400.53644791 385.6188755 400.5350914 C382.82295241 400.53411859 380.02740578 400.54715453 377.23153687 400.56407166 C369.28867916 400.61013399 361.34586475 400.6349653 353.40287781 400.64155579 C348.52940493 400.64657251 343.65633243 400.67081959 338.78299522 400.70688248 C336.93190604 400.71666612 335.08076173 400.71902026 333.22965431 400.71371078 C330.64259089 400.70663286 328.05672279 400.72393311 325.46977234 400.74653625 C324.71067062 400.7383638 323.95156891 400.73019135 323.16946411 400.72177124 C318.01990986 400.80166616 315.08127978 401.98870303 311.12870789 405.26069641 C307.38409126 410.87762134 308.53943896 418.12041517 309.74589539 424.54975891 C311.79710687 432.01035997 315.07642785 437.88614541 319.42167664 444.19038391 C321.35175576 447.66187633 321.90360707 450.31205286 322.12870789 454.26069641 C320.55122511 457.91381441 318.64088744 460.35408466 315.12870789 462.26069641 C304.06548485 463.32569058 292.29802444 453.87747317 284.12870789 447.26069641 C270.34657011 435.73792548 260.43627894 422.57288745 252.61308289 406.46772766 C250.72798051 403.66487808 249.17703177 402.73048203 246.12870789 401.26069641 C243.55567861 400.97914871 241.229297 400.85646766 238.66079712 400.88215637 C237.9177017 400.87762624 237.17460629 400.87309611 236.40899283 400.86842871 C233.92337695 400.85681816 231.43830063 400.86644632 228.9526825 400.87593079 C227.16847893 400.87182484 225.38427805 400.86636383 223.6000824 400.85964966 C219.75867427 400.84792404 215.91740982 400.84544071 212.07598686 400.8500061 C205.99392251 400.85681914 199.9120468 400.84093991 193.83001709 400.8216095 C180.90875755 400.78374047 167.98751439 400.7709632 155.06620789 400.76069641 C141.13990606 400.749616 127.21369131 400.73414985 113.28744894 400.68998384 C107.25020304 400.67169001 101.21317298 400.66771337 95.17590606 400.67491913 C91.40589134 400.67644873 87.635983 400.66560775 83.86599731 400.65154076 C82.12786321 400.64756199 80.38970849 400.64862195 78.65158272 400.65531349 C61.21261914 400.7172506 46.54871156 398.14782706 33.45292664 385.70991516 C24.09591217 375.8496663 18.98308346 364.29670079 19.0151825 350.62251282 C19.01529579 349.00151169 19.01529579 349.00151169 19.01541138 347.34776306 C19.02057266 346.19754669 19.02573395 345.04733032 19.03105164 343.86225891 C19.03246658 342.67216217 19.03388153 341.48206543 19.03533936 340.25590515 C19.04092369 336.46580969 19.05347338 332.67577393 19.06620789 328.88569641 C19.07122491 326.31147852 19.07578746 323.73725969 19.07987976 321.16304016 C19.09088799 314.86223864 19.10761058 308.56147179 19.12870789 302.26069641 C18.07070984 302.28164368 17.01271179 302.30259094 15.9226532 302.32417297 C11.94183761 302.39738206 7.96107957 302.44278545 3.9797821 302.48042297 C2.26711472 302.5003564 0.55451374 302.52751346 -1.15791321 302.56245422 C-15.66739181 302.85077817 -26.99314464 301.31184478 -38.87129211 292.26069641 C-40.41816711 291.14694641 -40.41816711 291.14694641 -41.99629211 290.01069641 C-49.63685179 282.70233498 -56.28482809 272.10969768 -57.00271988 261.27761745 C-57.00569454 260.57726407 -57.0086692 259.87691069 -57.01173401 259.15533447 C-57.01744415 258.34641251 -57.0231543 257.53749054 -57.02903748 256.70405579 C-57.03015533 255.82547913 -57.03127319 254.94690247 -57.03242493 254.04170227 C-57.03738983 253.10959427 -57.04235474 252.17748627 -57.04747009 251.21713257 C-57.0620653 248.13659425 -57.06888768 245.05610735 -57.07441711 241.97554016 C-57.08016869 239.83610024 -57.08592642 237.69666034 -57.09169006 235.55722046 C-57.1021911 231.0741807 -57.10804032 226.59115884 -57.11152649 222.10810852 C-57.11702356 216.35542895 -57.14108123 210.60298459 -57.16949844 204.85037899 C-57.1880882 200.43326109 -57.19332836 196.01620043 -57.19486237 191.59904671 C-57.19789536 189.47749603 -57.20594551 187.35594651 -57.21904755 185.23443413 C-57.23603897 182.27287005 -57.23424526 179.31188861 -57.22773743 176.35029602 C-57.23695221 175.46969513 -57.24616699 174.58909424 -57.25566101 173.68180847 C-57.21440306 167.7099624 -57.21440306 167.7099624 -55.53582382 165.51204777 C-53.87129211 164.26069641 -53.87129211 164.26069641 -50.87129211 164.26069641 C-50.87129211 162.28069641 -50.87129211 160.30069641 -50.87129211 158.26069641 C-52.07785461 158.07507141 -52.07785461 158.07507141 -53.30879211 157.88569641 C-54.15441711 157.67944641 -55.00004211 157.47319641 -55.87129211 157.26069641 C-57.44443395 154.11441273 -57.13825537 150.77488153 -57.18379211 147.32319641 C-57.21279602 146.59423157 -57.24179993 145.86526672 -57.27168274 145.11421204 C-57.33557963 139.75178816 -57.33557963 139.75178816 -54.97676086 137.25679016 C-52.87129211 136.26069641 -52.87129211 136.26069641 -50.87129211 136.26069641 C-50.87129211 134.28069641 -50.87129211 132.30069641 -50.87129211 130.26069641 C-52.07785461 130.07507141 -52.07785461 130.07507141 -53.30879211 129.88569641 C-54.15441711 129.67944641 -55.00004211 129.47319641 -55.87129211 129.26069641 C-57.45946852 126.0843436 -57.04546943 122.65159048 -57.06416321 119.16181946 C-57.0723407 118.324095 -57.08051819 117.48637054 -57.08894348 116.6232605 C-57.11383033 113.83965263 -57.13033081 111.05609625 -57.14472961 108.27241516 C-57.15005329 107.31960978 -57.15537697 106.36680439 -57.16086197 105.38512611 C-57.18762053 100.33218312 -57.20697808 95.27926494 -57.22138977 90.22627258 C-57.23467585 86.06035646 -57.26242535 81.89493635 -57.30342102 77.72920227 C-57.3530226 72.68881055 -57.3775459 67.64886545 -57.38461685 62.60824013 C-57.39128942 60.69587649 -57.40640592 58.78352123 -57.43050766 56.87129784 C-57.63258038 39.85406577 -54.73343159 27.07037478 -42.87910461 14.07710266 C-30.81914984 2.39264099 -16.10400072 -0.04737723 0 0 Z " fill="#5C6C7C" transform="translate(61.87129211425781,24.739303588867188)"/>
<path d="M0 0 C4.78306186 -0.09992737 9.56549757 -0.17195954 14.34936523 -0.21972656 C15.97186893 -0.23966813 17.59430242 -0.26683174 19.21655273 -0.30175781 C32.07136186 -0.57130053 42.65712768 0.32292632 52.9296875 8.95703125 C63.03103959 18.92496926 65.29352537 29.2917955 65.41899204 43.00140512 C65.42919616 45.92003363 65.42472937 48.8384405 65.41992188 51.75708008 C65.42726892 53.86551868 65.435857 55.97395326 65.44558716 58.0823822 C65.46774527 63.78912831 65.47073667 69.49572977 65.46883965 75.20251298 C65.46871968 79.9761179 65.47729463 84.74969247 65.48561716 89.52328891 C65.50483088 100.79069315 65.5077425 112.05802332 65.50097656 123.32543945 C65.49433777 134.9271094 65.51719856 146.52846125 65.55429029 158.13006669 C65.58503562 168.11087456 65.59634205 178.09158036 65.59245348 188.0724346 C65.59039093 194.02466814 65.59578898 199.97665409 65.62034607 205.92884254 C65.64269028 211.52933994 65.64067136 217.12932192 65.62041855 222.72982216 C65.61702205 224.77715967 65.62203843 226.82453241 65.63640213 228.87182236 C65.73507771 243.98734959 64.71493249 256.37977975 53.61328125 267.8359375 C45.87921427 274.24053108 37.60953097 277.1483958 27.72412109 277.1418457 C26.87982544 277.14532013 26.03552979 277.14879456 25.16564941 277.15237427 C23.3306583 277.15972871 21.49565831 277.16507576 19.66065598 277.16866493 C16.75104337 277.17583645 13.84159881 277.19150986 10.93203735 277.21000671 C2.65865434 277.26243213 -5.61463818 277.31041362 -13.88818359 277.32592773 C-18.94928616 277.33604013 -24.00996788 277.36545045 -29.07090378 277.40724754 C-30.99486474 277.4195195 -32.91888526 277.42468579 -34.84288406 277.42244911 C-37.54495964 277.42008169 -40.24584049 277.44237222 -42.94775391 277.4699707 C-43.73354828 277.46336929 -44.51934265 277.45676788 -45.32894897 277.44996643 C-53.41089267 277.58458937 -60.5845483 280.72502434 -66.4921875 286.26171875 C-71.83535516 292.4215882 -72.68641182 299.12019384 -72.4609375 307.08984375 C-71.51529429 315.11178316 -69.46105706 323.91675634 -65.26953125 330.87109375 C-64.85058594 331.57363281 -64.43164062 332.27617187 -64 333 C-64.33 333.66 -64.66 334.32 -65 335 C-82.27130228 323.57154253 -93.90577363 310.0377073 -103.62109375 291.98828125 C-107.42376322 285.09401059 -111.35814757 281.8266192 -118.65017223 278.95712852 C-122.40979589 277.88291119 -125.85064046 277.7226557 -129.72224426 277.7484436 C-130.48056146 277.74547346 -131.23887865 277.74250333 -132.02017516 277.73944318 C-134.55104415 277.73182901 -137.0816793 277.73828658 -139.61254883 277.74462891 C-141.43132179 277.74187778 -143.25009354 277.73819713 -145.06886292 277.73365784 C-148.98117001 277.72555453 -152.89341997 277.72337521 -156.80573463 277.72560501 C-162.99624412 277.72844125 -169.18663976 277.7140742 -175.37712097 277.69662476 C-192.97901705 277.64962841 -210.58090529 277.62565981 -228.18286133 277.61914062 C-237.90766759 277.61538687 -247.6323449 277.59733245 -257.3570959 277.56404626 C-263.50644265 277.54385812 -269.65545625 277.54144939 -275.80482256 277.55232644 C-279.63700355 277.55493909 -283.46899177 277.54090246 -287.30112267 277.52224541 C-289.07276582 277.51693651 -290.84444477 277.51839787 -292.61607361 277.52728081 C-309.68925106 277.60595388 -309.68925106 277.60595388 -317 273 C-318.03125 272.401875 -319.0625 271.80375 -320.125 271.1875 C-328.54863898 264.77820947 -332.65028536 258.04914392 -336 248 C-336.08826965 246.17467414 -336.11763203 244.34625311 -336.11352539 242.51879883 C-336.11344986 241.39786331 -336.11337433 240.2769278 -336.11329651 239.12202454 C-336.10555458 237.30785286 -336.10555458 237.30785286 -336.09765625 235.45703125 C-336.0962413 234.21829758 -336.09482635 232.9795639 -336.09336853 231.70329285 C-336.08871602 228.41368463 -336.0797339 225.1241254 -336.06866455 221.83453369 C-336.05842629 218.47628377 -336.05386574 215.11802667 -336.04882812 211.75976562 C-336.03779145 205.17315788 -336.02104767 198.58658295 -336 192 C-330.69811034 191.92561027 -325.39652732 191.87128489 -320.09423828 191.83520508 C-318.29210108 191.8201576 -316.49000027 191.7997147 -314.68798828 191.77368164 C-312.09137979 191.73711979 -309.49525725 191.72023319 -306.8984375 191.70703125 C-305.69808365 191.68380547 -305.69808365 191.68380547 -304.47348022 191.66011047 C-299.56594918 191.65864795 -296.25924039 192.298303 -292 195 C-287.01098231 200.52837096 -287.01098231 200.52837096 -286.98046875 204.6171875 C-287.8542117 218.36627464 -292.38835082 229.58252623 -300 241 C-300.33505659 244.01550927 -300.56038591 246.09883544 -300 249 C-298.06873898 251.67838573 -298.06873898 251.67838573 -295 253 C-282.33527012 254.08168511 -270.76108668 243.52052032 -261.4453125 235.9140625 C-251.12634157 227.00952995 -243.69998649 217.21042913 -237.3984375 205.23071289 C-231.49983784 194.02214466 -231.49983784 194.02214466 -225 192 C-222.44741955 191.81574898 -220.00651203 191.73138258 -217.4561615 191.7484436 C-216.70489898 191.74547346 -215.95363646 191.74250333 -215.1796084 191.73944318 C-212.66645459 191.73181506 -210.15353531 191.73829244 -207.64038086 191.74462891 C-205.83647503 191.74187834 -204.03257042 191.73819804 -202.22866821 191.73365784 C-198.34472454 191.72554782 -194.46083844 191.72337695 -190.57688713 191.72560501 C-184.42763961 191.72844038 -178.27850678 191.7140762 -172.12928772 191.69662476 C-154.64325696 191.64962403 -137.15723369 191.62566937 -119.67114258 191.61914062 C-110.01296901 191.61538237 -100.35492501 191.5972892 -90.69680697 191.56404626 C-84.59261754 191.54389331 -78.4887637 191.54143251 -72.38455474 191.55232644 C-68.57298634 191.55494593 -64.76161053 191.54086875 -60.95009232 191.52224541 C-59.1926106 191.51695259 -57.43509275 191.51836995 -55.67762566 191.52728081 C-39.96855146 191.60045598 -26.18634118 188.85053611 -14.25 177.75 C-3.49723864 166.21291958 -0.39463716 153.06884633 -0.45410156 137.70629883 C-0.44534915 136.19729557 -0.43485761 134.68830156 -0.42277527 133.17932129 C-0.39509845 129.11597769 -0.39150649 125.05293966 -0.39249516 120.98951554 C-0.38935017 116.7307096 -0.3636992 112.47203811 -0.34051514 108.21330261 C-0.30007243 100.16362128 -0.27964212 92.11402072 -0.26654124 84.06425351 C-0.2506313 74.89360499 -0.212199 65.72309315 -0.17194796 56.55252421 C-0.08970967 37.70172611 -0.03551735 18.85094115 0 0 Z " fill="#EF7987" transform="translate(430,135)"/>
<path d="M0 0 C1.39752458 -0.00302446 2.7950475 -0.00691542 4.19256753 -0.01159257 C8.01422833 -0.02184342 11.83579501 -0.0196982 15.65746343 -0.01541197 C19.78641791 -0.01293942 23.91535004 -0.0219655 28.04429626 -0.02944946 C36.12640715 -0.04218407 44.2084848 -0.04399168 52.29060403 -0.0416492 C58.86208682 -0.0398644 65.43355954 -0.04161916 72.00504112 -0.04587364 C73.40928619 -0.04676643 73.40928619 -0.04676643 74.84189984 -0.04767724 C76.74388026 -0.04888903 78.64586068 -0.05010316 80.54784109 -0.05131962 C98.37594159 -0.06219051 116.20402316 -0.06003488 134.03212472 -0.05393478 C150.3288161 -0.04876673 166.62544768 -0.0600189 182.92212722 -0.07903299 C199.66925953 -0.09842233 216.41636356 -0.10666543 233.16350716 -0.10290974 C242.56023037 -0.10099927 251.95690269 -0.1034702 261.35361671 -0.11762428 C269.35372794 -0.12955305 277.35375697 -0.13092625 285.35386936 -0.11883412 C289.43233362 -0.11295577 293.51064764 -0.11181695 297.58910179 -0.12383652 C301.32917125 -0.13473034 305.06896567 -0.13155077 308.80902245 -0.11757483 C310.78902227 -0.11369666 312.76903448 -0.12444638 314.74900514 -0.13587171 C330.38061755 -0.04193523 343.3618259 3.9436421 354.80448914 14.81147766 C364.1615036 24.67172652 369.27433231 36.22469204 369.24223328 49.89888 C369.24215775 50.97954742 369.24208221 52.06021484 369.24200439 53.17362976 C369.23684311 54.32384613 369.23168182 55.4740625 369.22636414 56.65913391 C369.22424171 58.44427902 369.22424171 58.44427902 369.22207642 60.26548767 C369.21649209 64.05558313 369.20394239 67.84561889 369.19120789 71.63569641 C369.18619086 74.20991431 369.18162831 76.78413313 369.17753601 79.35835266 C369.16652778 85.65915418 369.14980519 91.95992103 369.12870789 98.26069641 C370.18670593 98.23974915 371.24470398 98.21880188 372.33476257 98.19721985 C376.31557816 98.12401076 380.2963362 98.07860737 384.27763367 98.04096985 C385.99030105 98.02103642 387.70290203 97.99387936 389.41532898 97.9589386 C403.92480759 97.67061465 415.25056041 99.20954804 427.12870789 108.26069641 C428.15995789 109.00319641 429.19120789 109.74569641 430.25370789 110.51069641 C438.59531582 118.48962574 444.86416692 129.49256283 445.26292896 141.20204163 C445.27234286 142.84364222 445.27623588 144.4852798 445.27587891 146.12690735 C445.27955559 147.03249043 445.28323228 147.93807352 445.28702039 148.87109852 C445.29805312 151.91242854 445.30190042 154.95372438 445.30570984 157.99507141 C445.31197491 160.1732087 445.31862175 162.35134493 445.32562256 164.52947998 C445.34666409 171.68987789 445.35702658 178.850276 445.36698914 186.01069641 C445.37103697 188.4769746 445.3751539 190.94325268 445.37933922 193.40953064 C445.39839286 204.9991539 445.41262227 216.5887708 445.42095119 228.17840672 C445.4219197 229.51198896 445.42289395 230.8455712 445.4238739 232.17915344 C445.42435764 232.84065081 445.42484138 233.50214817 445.42533978 234.18369091 C445.43414513 245.55099143 445.46307561 256.91815623 445.49745208 268.28540611 C445.52764103 278.62359442 445.5424228 288.96173529 445.5457322 299.29996681 C445.54807994 305.47188803 445.55700443 311.64363213 445.58219337 317.81550598 C445.60552685 323.62677537 445.60968595 329.43775171 445.59943199 335.24905586 C445.59893777 337.37582946 445.60522443 339.50261773 445.61898804 341.62934685 C445.72343781 358.7332014 443.77855396 372.4895654 431.90995789 385.73725891 C421.28074925 396.05587379 407.99458811 400.5959983 393.39945984 400.5160675 C392.16836487 400.52149818 392.16836487 400.52149818 390.91239929 400.52703857 C389.14790259 400.53388039 387.38338495 400.53644791 385.6188755 400.5350914 C382.82295241 400.53411859 380.02740578 400.54715453 377.23153687 400.56407166 C369.28867916 400.61013399 361.34586475 400.6349653 353.40287781 400.64155579 C348.52940493 400.64657251 343.65633243 400.67081959 338.78299522 400.70688248 C336.93190604 400.71666612 335.08076173 400.71902026 333.22965431 400.71371078 C330.64259089 400.70663286 328.05672279 400.72393311 325.46977234 400.74653625 C324.71067062 400.7383638 323.95156891 400.73019135 323.16946411 400.72177124 C318.01990986 400.80166616 315.08127978 401.98870303 311.12870789 405.26069641 C307.38409126 410.87762134 308.53943896 418.12041517 309.74589539 424.54975891 C311.79710687 432.01035997 315.07642785 437.88614541 319.42167664 444.19038391 C321.35175576 447.66187633 321.90360707 450.31205286 322.12870789 454.26069641 C320.55122511 457.91381441 318.64088744 460.35408466 315.12870789 462.26069641 C304.06548485 463.32569058 292.29802444 453.87747317 284.12870789 447.26069641 C270.34657011 435.73792548 260.43627894 422.57288745 252.61308289 406.46772766 C250.72798051 403.66487808 249.17703177 402.73048203 246.12870789 401.26069641 C243.55567861 400.97914871 241.229297 400.85646766 238.66079712 400.88215637 C237.9177017 400.87762624 237.17460629 400.87309611 236.40899283 400.86842871 C233.92337695 400.85681816 231.43830063 400.86644632 228.9526825 400.87593079 C227.16847893 400.87182484 225.38427805 400.86636383 223.6000824 400.85964966 C219.75867427 400.84792404 215.91740982 400.84544071 212.07598686 400.8500061 C205.99392251 400.85681914 199.9120468 400.84093991 193.83001709 400.8216095 C180.90875755 400.78374047 167.98751439 400.7709632 155.06620789 400.76069641 C141.13990606 400.749616 127.21369131 400.73414985 113.28744894 400.68998384 C107.25020304 400.67169001 101.21317298 400.66771337 95.17590606 400.67491913 C91.40589134 400.67644873 87.635983 400.66560775 83.86599731 400.65154076 C82.12786321 400.64756199 80.38970849 400.64862195 78.65158272 400.65531349 C61.21261914 400.7172506 46.54871156 398.14782706 33.45292664 385.70991516 C24.09591217 375.8496663 18.98308346 364.29670079 19.0151825 350.62251282 C19.01529579 349.00151169 19.01529579 349.00151169 19.01541138 347.34776306 C19.02057266 346.19754669 19.02573395 345.04733032 19.03105164 343.86225891 C19.03246658 342.67216217 19.03388153 341.48206543 19.03533936 340.25590515 C19.04092369 336.46580969 19.05347338 332.67577393 19.06620789 328.88569641 C19.07122491 326.31147852 19.07578746 323.73725969 19.07987976 321.16304016 C19.09088799 314.86223864 19.10761058 308.56147179 19.12870789 302.26069641 C18.07070984 302.28164368 17.01271179 302.30259094 15.9226532 302.32417297 C11.94183761 302.39738206 7.96107957 302.44278545 3.9797821 302.48042297 C2.26711472 302.5003564 0.55451374 302.52751346 -1.15791321 302.56245422 C-15.66739181 302.85077817 -26.99314464 301.31184478 -38.87129211 292.26069641 C-40.41816711 291.14694641 -40.41816711 291.14694641 -41.99629211 290.01069641 C-49.63685179 282.70233498 -56.28482809 272.10969768 -57.00271988 261.27761745 C-57.00569454 260.57726407 -57.0086692 259.87691069 -57.01173401 259.15533447 C-57.01744415 258.34641251 -57.0231543 257.53749054 -57.02903748 256.70405579 C-57.03015533 255.82547913 -57.03127319 254.94690247 -57.03242493 254.04170227 C-57.03738983 253.10959427 -57.04235474 252.17748627 -57.04747009 251.21713257 C-57.0620653 248.13659425 -57.06888768 245.05610735 -57.07441711 241.97554016 C-57.08016869 239.83610024 -57.08592642 237.69666034 -57.09169006 235.55722046 C-57.1021911 231.0741807 -57.10804032 226.59115884 -57.11152649 222.10810852 C-57.11702356 216.35542895 -57.14108123 210.60298459 -57.16949844 204.85037899 C-57.1880882 200.43326109 -57.19332836 196.01620043 -57.19486237 191.59904671 C-57.19789536 189.47749603 -57.20594551 187.35594651 -57.21904755 185.23443413 C-57.23603897 182.27287005 -57.23424526 179.31188861 -57.22773743 176.35029602 C-57.23695221 175.46969513 -57.24616699 174.58909424 -57.25566101 173.68180847 C-57.21441705 167.71198801 -57.21441705 167.71198801 -55.53582382 165.50423527 C-53.87129211 164.26069641 -53.87129211 164.26069641 -50.87129211 164.38569641 C-47.77303165 165.28935571 -46.82589543 165.80372718 -44.87129211 168.26069641 C-44.57685615 171.17610861 -44.46477748 173.87975281 -44.48652649 176.7960968 C-44.48115372 177.66804687 -44.47578094 178.53999695 -44.47024536 179.43836975 C-44.46045538 181.33391159 -44.45752689 183.22949831 -44.46060181 185.12506294 C-44.46507688 188.13170848 -44.4510851 191.13776439 -44.4322052 194.14434814 C-44.39537467 200.53728777 -44.38172061 206.93016634 -44.37129211 213.32319641 C-44.35919337 220.70899434 -44.33746713 228.09450672 -44.29129028 235.48017693 C-44.27778484 238.4303313 -44.28188097 241.38011892 -44.28669739 244.33029175 C-44.24666347 257.90994089 -43.29494269 268.70337359 -33.87129211 279.26069641 C-22.75812162 289.18050632 -11.17773265 289.69095885 3.02296638 289.64082146 C5.87028404 289.63162817 8.71695477 289.64202719 11.5642395 289.65744019 C19.65237058 289.69731989 27.7404459 289.69874239 35.82865906 289.69648743 C40.79404351 289.69643617 45.7590756 289.71567399 50.72436333 289.745821 C53.51681743 289.75658472 56.30858188 289.74455567 59.10101318 289.73199463 C75.38080017 289.76580571 75.38080017 289.76580571 82.12870789 294.26069641 C83.20120789 294.96194641 84.27370789 295.66319641 85.37870789 296.38569641 C90.91502141 302.17366055 93.4251158 307.83870486 93.69120789 315.88569641 C93.29707975 326.49238016 90.47100648 336.61805626 86.12870789 346.26069641 C88.00527718 344.86693378 89.87996567 343.47075119 91.75370789 342.07319641 C92.79784851 341.29589172 93.84198914 340.51858704 94.91777039 339.71772766 C100.32802315 335.60511583 105.17181316 331.44136532 109.37870789 326.07319641 C109.84832947 325.47950256 110.31795105 324.88580872 110.80180359 324.27412415 C114.53190525 319.395529 117.45246112 314.24455569 120.31620789 308.82319641 C125.15893953 299.705011 130.0044229 293.62471891 140.12870789 290.26069641 C142.78438301 289.98971313 145.19697657 289.85548472 147.84385681 289.88215637 C148.58936664 289.87762624 149.33487648 289.87309611 150.10297751 289.86842871 C152.58471715 289.85686245 155.06591176 289.86642818 157.5476532 289.87593079 C159.33377427 289.8718229 161.11989267 289.86636074 162.90600586 289.85964966 C166.74519831 289.84794251 170.58424706 289.84543403 174.42345428 289.8500061 C180.50120342 289.85682858 186.57876436 289.84092474 192.65647888 289.8216095 C205.56387842 289.78377694 218.47126141 289.77096329 231.37870789 289.76069641 C245.30098612 289.74961367 259.22317729 289.73417464 273.14539599 289.68998384 C279.17957604 289.67168333 285.21354012 289.6677155 291.24774122 289.67491913 C295.01224374 289.67644735 298.77663949 289.66561677 302.5411129 289.65154076 C304.27805617 289.64755807 306.01502006 289.64862878 307.75195503 289.65531349 C321.91145621 289.70559262 335.5175219 288.72341367 346.16777039 278.25679016 C356.09042082 266.45516975 355.70845217 253.66539508 355.64628601 239.05122375 C355.6517126 236.90659104 355.65883827 234.76196207 355.66752625 232.61734009 C355.68569625 226.81789163 355.6787187 221.01872914 355.6660099 215.21927595 C355.65585209 209.13896915 355.66528305 203.05868611 355.67155457 196.9783783 C355.67882175 186.77165855 355.66926643 176.56505478 355.65019226 166.35835266 C355.62841374 154.56859504 355.6354859 142.77911403 355.65749788 130.98936307 C355.67566436 120.85233013 355.67820442 110.71538032 355.66774321 100.57833636 C355.66151669 94.5301635 355.66064985 88.48212058 355.67388916 82.43395615 C355.68546551 76.74895749 355.67738895 71.06431479 355.65431213 65.37935448 C355.64903514 63.29648237 355.65052147 61.21358017 355.65936279 59.13072014 C355.67034139 56.28109713 355.65652678 53.43260511 355.63664246 50.58305359 C355.64556534 49.7646548 355.65448823 48.94625602 355.66368151 48.10305727 C355.54345581 39.18207998 351.59687855 30.90189418 345.41386414 24.47944641 C338.6382569 18.14660163 330.78627128 14.14893927 321.42629528 14.1180954 C320.23066784 14.11178746 319.0350404 14.10547952 317.80318183 14.09898043 C316.46964863 14.09699675 315.13611527 14.0951198 313.80258179 14.09333801 C312.39103737 14.08789207 310.97949451 14.08202866 309.56795341 14.0757823 C305.67962403 14.05991618 301.79130097 14.05041084 297.90294921 14.04201746 C294.5698889 14.03401735 291.23684568 14.02232583 287.9037967 14.01060265 C275.96186223 13.96867389 264.01990767 13.94148072 252.07792664 13.91694641 C251.13519725 13.91497151 250.19246787 13.91299661 249.22117093 13.91096187 C230.49798986 13.87178952 211.77480211 13.83808948 193.05159283 13.81587982 C188.9339872 13.81091057 184.81638167 13.80586625 180.69877625 13.80073547 C179.67537361 13.7994648 178.65197098 13.79819413 177.59755615 13.79688495 C161.03339786 13.77554257 144.46943847 13.72656639 127.90538015 13.66649133 C110.89401296 13.60530372 93.88274821 13.57068211 76.87127239 13.56140661 C67.32224301 13.55550288 57.77355019 13.53782023 48.22463036 13.49002075 C40.08858194 13.44933133 31.95292501 13.43257567 23.8167794 13.44667357 C19.66898244 13.4531218 15.52201848 13.44843999 11.3743515 13.41279984 C7.56819416 13.38035871 3.76344982 13.38097478 -0.04274621 13.40661687 C-2.05343433 13.41193465 -4.064126 13.3830455 -6.0745886 13.35246515 C-17.50486099 13.48834271 -27.24984372 17.22077811 -35.43379211 25.44819641 C-43.59210754 35.88786839 -44.58245275 46.22114307 -44.46287727 58.96365356 C-44.43718759 61.72178449 -44.44233923 64.47844135 -44.45477295 67.23664856 C-44.47537145 73.07816537 -44.45588076 78.91921082 -44.43379211 84.76069641 C-44.41265688 91.56234734 -44.40808039 98.36352052 -44.43429375 105.16516113 C-44.43765246 107.87984423 -44.41645525 110.59360786 -44.39389038 113.30818176 C-44.39640063 114.96748556 -44.39995964 116.62678822 -44.40473938 118.28608704 C-44.385411 119.41442963 -44.385411 119.41442963 -44.36569214 120.56556702 C-44.39877585 124.00378207 -44.64187656 125.94103773 -46.66998291 128.766922 C-48.87129211 130.26069641 -48.87129211 130.26069641 -52.55879211 130.13569641 C-53.65191711 129.84694641 -54.74504211 129.55819641 -55.87129211 129.26069641 C-57.45946852 126.0843436 -57.04546943 122.65159048 -57.06416321 119.16181946 C-57.0723407 118.324095 -57.08051819 117.48637054 -57.08894348 116.6232605 C-57.11383033 113.83965263 -57.13033081 111.05609625 -57.14472961 108.27241516 C-57.15005329 107.31960978 -57.15537697 106.36680439 -57.16086197 105.38512611 C-57.18762053 100.33218312 -57.20697808 95.27926494 -57.22138977 90.22627258 C-57.23467585 86.06035646 -57.26242535 81.89493635 -57.30342102 77.72920227 C-57.3530226 72.68881055 -57.3775459 67.64886545 -57.38461685 62.60824013 C-57.39128942 60.69587649 -57.40640592 58.78352123 -57.43050766 56.87129784 C-57.63258038 39.85406577 -54.73343159 27.07037478 -42.87910461 14.07710266 C-30.81914984 2.39264099 -16.10400072 -0.04737723 0 0 Z M368.12870789 110.26069641 C368.12650805 111.42826839 368.12650805 111.42826839 368.12426376 112.61942768 C368.08715147 131.59203826 368.02807822 150.56446538 367.94480515 169.53693104 C367.90505935 178.71202689 367.87264425 187.88703752 367.85771179 197.06221008 C367.84467211 205.06279822 367.81764852 213.06319851 367.77409482 221.06368083 C367.75153193 225.29673901 367.73579408 229.52956594 367.73682404 233.76268959 C367.73757373 237.75437085 367.71950021 241.74554193 367.68754005 245.73709106 C367.67908378 247.19503639 367.67726182 248.65303923 367.6829052 250.11099815 C367.73148451 264.60154969 363.93163251 277.22449964 353.87870789 288.01069641 C341.08395172 299.90953968 326.54199434 301.85908973 309.87919617 301.75898743 C308.06451981 301.76281733 306.2498465 301.76844207 304.43518066 301.77571106 C300.5507294 301.78759917 296.66654875 301.78722129 292.78209305 301.77711678 C286.63808311 301.76147949 280.49434811 301.7752849 274.35035706 301.79315186 C262.42584748 301.82388013 250.50142327 301.82547541 238.57688141 301.82350159 C223.37664709 301.82210571 208.17647771 301.83244283 192.97629154 301.87207931 C186.86961787 301.88700564 180.7631899 301.88674933 174.6565125 301.87460148 C170.86167197 301.86989233 167.06692566 301.87740679 163.27210045 301.88814545 C161.51369725 301.89055198 159.75527829 301.88781484 157.99689293 301.87953758 C155.59528003 301.86890837 153.19439062 301.87667326 150.7928009 301.8888855 C149.75155648 301.87752142 149.75155648 301.87752142 148.68927681 301.86592776 C144.11997024 301.91514126 140.99231332 302.82574691 137.12870789 305.26069641 C135.24915176 307.90223475 133.70055985 310.43974609 132.12870789 313.26069641 C126.80589936 322.57766594 121.32245048 331.22768385 114.12870789 339.26069641 C113.27019226 340.22555969 113.27019226 340.22555969 112.39433289 341.20991516 C104.42522592 349.65337373 88.89493194 362.43369414 76.81620789 363.57319641 C73.12870789 363.26069641 73.12870789 363.26069641 70.19120789 361.76069641 C67.78542521 358.84459619 67.72319873 357.08398326 67.82377625 353.37397766 C68.32475251 349.90203964 70.000827 347.43032143 71.87870789 344.51069641 C77.94500196 334.57105021 81.82532877 324.11945199 81.12870789 312.26069641 C79.21756196 308.15527182 76.9827795 305.62286934 73.12870789 303.26069641 C69.24409742 301.96582626 65.56986833 302.13743601 61.52323914 302.16304016 C60.68403427 302.16445511 59.84482941 302.16587006 58.98019409 302.16732788 C56.30049573 302.17292426 53.62088099 302.18547606 50.94120789 302.19819641 C49.1241518 302.20321188 47.30709441 302.20777471 45.49003601 302.21186829 C41.03622776 302.2228925 36.582482 302.24015463 32.12870789 302.26069641 C32.00112608 310.01605001 31.91402995 317.77112942 31.85404968 325.52729797 C31.82902494 328.16151544 31.79499455 330.79566431 31.75151062 333.42964172 C31.69033068 337.2328746 31.66237587 341.03518336 31.64042664 344.83882141 C31.601717 346.58331573 31.601717 346.58331573 31.56222534 348.36305237 C31.55850176 359.40849175 34.72403028 368.61475241 42.44511414 376.65132141 C49.77482876 383.65791637 57.31613179 387.41712918 67.48345947 387.39199829 C68.61603201 387.39517186 68.61603201 387.39517186 69.77148479 387.39840955 C72.30927479 387.40441547 74.84701514 387.40340896 77.3848114 387.40254211 C79.2015186 387.40557332 81.01822504 387.40909467 82.83493042 387.41307068 C86.75218351 387.42096468 90.66942746 387.42610656 94.58668709 387.42936134 C100.78561312 387.43527032 106.9844817 387.45181087 113.18338013 387.47070312 C115.30581375 387.47704079 117.42824742 387.48336641 119.55068111 387.48968029 C120.61374064 387.4928461 121.67680017 387.49601191 122.77207363 387.49927366 C137.20515041 387.54133797 151.63820087 387.57431083 166.07133484 387.58662415 C175.80419559 387.59501288 185.53691449 387.61753589 195.26970428 387.65597981 C200.41874724 387.6757171 205.56757826 387.68815284 210.71666145 387.68314552 C215.56521583 387.67848813 220.41336915 387.69236414 225.26184273 387.72015762 C227.03628218 387.72705169 228.81076326 387.72721526 230.58520126 387.71995735 C241.18731846 387.68099009 249.69874773 388.35298582 258.95683289 393.97944641 C262.02720365 397.20444016 263.85215865 400.8218157 265.87870789 404.76069641 C275.07986821 421.9114392 286.83033645 434.68463721 303.12870789 445.26069641 C303.12870789 441.26691332 301.63249754 438.04663809 300.19120789 434.38569641 C296.39969929 424.72658636 293.92915612 414.64842857 296.99980164 404.33491516 C300.6912308 396.35900757 305.66316484 391.9260846 313.88071442 388.9080925 C317.56672843 387.84656315 321.11223222 387.86198298 324.92460632 387.90766907 C325.76481323 387.90550888 326.60502014 387.90334869 327.47068787 387.90112305 C329.28212785 387.89805256 331.09358896 387.90159284 332.90500641 387.91113663 C335.78239255 387.92497197 338.65909637 387.91837952 341.53648376 387.90629578 C349.71277979 387.87547549 357.88891348 387.88014164 366.06523132 387.90034485 C371.08023989 387.91132405 376.09473507 387.89794157 381.10967255 387.87044907 C383.00885454 387.86504518 384.90808905 387.86897762 386.80722809 387.88284683 C401.56713777 387.98937009 412.89701053 386.42234314 423.99980164 375.72944641 C427.26940342 371.9379082 429.35186088 367.91751628 431.12870789 363.26069641 C431.47266696 362.40264278 431.81662603 361.54458916 432.17100811 360.66053391 C433.35012384 356.47466903 433.40942924 352.73066028 433.3894043 348.40626526 C433.39322984 347.52614706 433.39705539 346.64602886 433.40099686 345.73924041 C433.41129864 342.79613598 433.40734003 339.85322767 433.40336609 336.91011047 C433.4077142 334.79739705 433.41289767 332.68468521 433.41885376 330.57197571 C433.43224629 324.83628753 433.43282199 319.10066525 433.43029046 313.36496449 C433.42922064 308.57388776 433.43410456 303.78282435 433.43889588 298.99175048 C433.44999256 287.68523013 433.45042796 276.37874301 433.44438171 265.07221985 C433.4383448 253.41725857 433.45064545 241.7624181 433.47195178 230.10747743 C433.48958177 220.09453635 433.49556681 210.08163368 433.49231404 200.06867766 C433.49050283 194.09139329 433.49312105 188.11419504 433.50702858 182.13692474 C433.51962448 176.51279452 433.51764599 170.88885214 433.50461769 165.26472473 C433.50225599 163.20484605 433.50497199 161.14495408 433.51324081 159.08509064 C433.56790736 144.40393234 433.15376759 132.8655807 423.12870789 121.26069641 C414.17162626 112.42191587 404.31827213 109.83322494 392.07307434 109.87870789 C389.69536635 109.90945903 387.31855504 109.95951355 384.94120789 110.01069641 C383.30516219 110.03080442 381.66909246 110.04904754 380.03300476 110.06538391 C376.06430167 110.10901154 372.0967769 110.17779581 368.12870789 110.26069641 Z " fill="#010101" transform="translate(61.87129211425781,24.739303588867188)"/>
<path d="M0 0 C20.19115258 16.31967545 34.24167642 38.7304625 37.37890625 64.78515625 C39.54595942 91.847766 32.04803456 117.62880846 14.41796875 138.4921875 C13.74507812 139.24886719 13.0721875 140.00554687 12.37890625 140.78515625 C11.72664062 141.53152344 11.074375 142.27789062 10.40234375 143.046875 C1.67349794 152.41322079 -9.16678663 158.96023387 -20.74609375 164.22265625 C-21.78237915 164.69940796 -21.78237915 164.69940796 -22.83959961 165.18579102 C-34.25375231 170.11658831 -45.65817888 171.31899287 -57.99609375 171.22265625 C-58.67874298 171.21928253 -59.36139221 171.21590881 -60.06472778 171.21243286 C-70.14792325 171.14022757 -79.17275745 170.60975226 -88.62109375 166.78515625 C-89.25966309 166.5437793 -89.89823242 166.30240234 -90.55615234 166.05371094 C-115.46805388 156.59801186 -133.81499271 139.00769514 -145.15625 115.09765625 C-154.75035689 93.40218254 -156.69102494 66.0335084 -148.07421875 43.61328125 C-137.77376679 18.39553638 -119.70478827 -1.46005823 -94.56445312 -12.44042969 C-63.23339776 -24.92561909 -26.87864134 -20.76758667 0 0 Z " fill="#F06868" transform="translate(275.62109375,100.21484375)"/>
<path d="M0 0 C0.66 0.33 1.32 0.66 2 1 C1.67 1.33 1.34 1.66 1 2 C0.38766781 10.88028634 1.44178382 19.70405934 2.5625 28.5 C2.6475882 29.1763147 2.73267639 29.85262939 2.82034302 30.54943848 C5.02343797 47.85785623 8.36965229 64.94108137 12 82 C12.20705566 82.97791504 12.41411133 83.95583008 12.62744141 84.96337891 C26.7443404 149.96648195 57.40050936 211.13878313 96 264.875 C96.51554443 265.59381348 97.03108887 266.31262695 97.56225586 267.05322266 C100.84084512 271.5637505 104.32243373 275.80801226 108 280 C107.67 280.66 107.34 281.32 107 282 C106.13375 281.38125 105.2675 280.7625 104.375 280.125 C98.48595197 276.41708087 93.34911198 275.70620483 86.49121094 275.72875977 C85.65783707 275.72353302 84.8244632 275.71830627 83.96583557 275.71292114 C82.16365176 275.70271379 80.36143874 275.69690646 78.55922699 275.69503975 C75.69944159 275.69136132 72.83999841 275.67459292 69.98028564 275.65428162 C61.8519937 275.5990203 53.72365142 275.56825204 45.59521484 275.54370117 C40.61501223 275.52775603 35.63505223 275.49746305 30.65497589 275.45893669 C28.76532838 275.44734635 26.87563734 275.44135687 24.98595428 275.44125557 C10.65176651 275.44020876 -0.69896455 274.82204088 -12 265 C-20.46427362 255.99477657 -23.15672796 247.25600959 -23.12597656 235.12646484 C-23.1278447 234.24297867 -23.12971283 233.35949249 -23.13163757 232.44923401 C-23.13563244 230.53623114 -23.13771557 228.62322353 -23.13809967 226.71021652 C-23.14152114 222.64661679 -23.16288351 218.58317624 -23.18333054 214.51963234 C-23.22135297 206.95675059 -23.25260728 199.39404303 -23.25048828 191.83105469 C-23.24970327 186.56662305 -23.27296733 181.30277984 -23.3123703 176.03850174 C-23.32285793 174.03142565 -23.32433412 172.02428188 -23.31671906 170.01719284 C-23.3071449 167.21572311 -23.32818523 164.41605295 -23.35644531 161.61474609 C-23.34624863 160.78246994 -23.33605194 159.95019379 -23.32554626 159.09269714 C-23.31554778 156.52280629 -23.31554778 156.52280629 -24 153 C-26.42731785 151.14884692 -26.42731785 151.14884692 -29 150 C-29.3125 146.3125 -29.3125 146.3125 -29 143 C-30.2065625 142.814375 -30.2065625 142.814375 -31.4375 142.625 C-32.283125 142.41875 -33.12875 142.2125 -34 142 C-35.57314184 138.85371632 -35.26696326 135.51418512 -35.3125 132.0625 C-35.34150391 131.33353516 -35.37050781 130.60457031 -35.40039062 129.85351562 C-35.46428752 124.49109175 -35.46428752 124.49109175 -33.10546875 121.99609375 C-31 121 -31 121 -29 121 C-29 119.02 -29 117.04 -29 115 C-28.360625 114.71125 -27.72125 114.4225 -27.0625 114.125 C-24.84793921 113.17176549 -24.84793921 113.17176549 -24 111 C-23.90360821 108.40882709 -23.86685834 105.84383456 -23.87402344 103.25244141 C-23.8721553 102.45212494 -23.87028717 101.65180847 -23.86836243 100.82723999 C-23.8643524 99.08445178 -23.86228304 97.34165829 -23.86190033 95.59886551 C-23.85848336 91.88154313 -23.83710862 88.16439539 -23.81666946 84.44713402 C-23.77870346 77.5260949 -23.74737283 70.60523713 -23.74951172 63.68408203 C-23.75030348 58.87043468 -23.72673047 54.05742025 -23.6876297 49.24393845 C-23.67723092 47.41735055 -23.67560009 45.59068903 -23.68328094 43.76408768 C-23.73842208 29.1842133 -21.95361607 18.08216828 -11.41796875 7.140625 C-7.9938259 4.10923521 -4.3469862 1.51639053 0 0 Z " fill="#4E5C68" transform="translate(40,40)"/>
<path d="M0 0 C1.08410156 0.28875 2.16820312 0.5775 3.28515625 0.875 C26.6941443 7.93235306 48.21680434 24.08768478 61 45 C61.98226562 46.55074219 61.98226562 46.55074219 62.984375 48.1328125 C76.8508667 70.66912576 82.14891416 98.52310302 76.375 124.5 C69.17194333 153.83703955 52.86127549 178.89682616 27 195 C16.84990178 200.96974251 6.34519964 204.92535556 -5 208 C-6.72283203 208.54720703 -6.72283203 208.54720703 -8.48046875 209.10546875 C-15.09986461 210.72229821 -22.03637931 210.44042632 -28.8125 210.4375 C-29.91656693 210.43860275 -29.91656693 210.43860275 -31.04293823 210.43972778 C-42.97813144 210.40840011 -53.80091478 209.32508993 -65 205 C-65.70350586 204.73767578 -66.40701172 204.47535156 -67.13183594 204.20507812 C-92.46490526 194.5708876 -113.49173879 175.6486183 -125.78515625 151.4921875 C-128.52496451 145.33988148 -130.7510213 139.03076279 -132.8125 132.625 C-133.01979736 131.98312744 -133.22709473 131.34125488 -133.44067383 130.67993164 C-136.28937121 121.37450726 -136.18262477 112.21058303 -136.1875 102.5625 C-136.19974609 101.29083984 -136.21199219 100.01917969 -136.22460938 98.70898438 C-136.2353155 91.82494765 -135.8325278 85.6326368 -134 79 C-133.81179687 78.0409375 -133.62359375 77.081875 -133.4296875 76.09375 C-128.22172113 51.74100584 -111.2532927 29.04347491 -91.01171875 14.9140625 C-62.88711631 -3.01150829 -32.3826916 -8.81804391 0 0 Z M-58 12 C-59.14855469 12.36222656 -60.29710937 12.72445312 -61.48046875 13.09765625 C-85.89964858 21.70417722 -105.3070301 40.45496415 -116.375 63.5625 C-119.44343868 70.1922814 -121.74068536 76.77715405 -123 84 C-123.18175781 85.00546875 -123.36351563 86.0109375 -123.55078125 87.046875 C-125.1381295 101.01553959 -125.6403157 116.58686103 -121 130 C-120.80132324 130.61456055 -120.60264648 131.22912109 -120.39794922 131.86230469 C-112.48059357 156.21336259 -96.35954823 175.58674123 -74 188 C-69.42555373 190.3103264 -64.80897935 192.23420289 -60 194 C-58.453125 194.62068359 -58.453125 194.62068359 -56.875 195.25390625 C-40.06836471 200.94200098 -15.40841119 200.65364999 1 194 C1.64388672 193.75330566 2.28777344 193.50661133 2.95117188 193.25244141 C27.61429766 183.75002137 46.44773421 166.39000824 57.75 142.4375 C67.95298317 118.73359971 69.53744197 93.03287503 60.12304688 68.73681641 C49.41454257 43.65367973 30.29644718 24.23903815 5 14 C-15.6937968 6.85763056 -36.9711864 5.32671026 -58 12 Z " fill="#030202" transform="translate(247,73)"/>
<path d="M0 0 C5.30188966 -0.07438973 10.60347268 -0.12871511 15.90576172 -0.16479492 C17.70789892 -0.1798424 19.50999973 -0.2002853 21.31201172 -0.22631836 C23.90862021 -0.26288021 26.50474275 -0.27976681 29.1015625 -0.29296875 C30.30191635 -0.31619453 30.30191635 -0.31619453 31.52651978 -0.33988953 C36.43405082 -0.34135205 39.74075961 0.298303 44 3 C48.98901769 8.52837096 48.98901769 8.52837096 49.01953125 12.6171875 C48.1457883 26.36627464 43.61164918 37.58252623 36 49 C35.66494341 52.01550927 35.43961409 54.09883544 36 57 C37.93126102 59.67838573 37.93126102 59.67838573 41 61 C53.66754696 62.08192572 65.51177421 51.45790667 74.73046875 43.703125 C79.22999209 39.74194936 83.34366705 35.75323283 87 31 C87.639375 31.639375 88.27875 32.27875 88.9375 32.9375 C89.62199219 33.62005859 89.62199219 33.62005859 90.3203125 34.31640625 C91.57017734 35.56917776 92.81402751 36.82795574 94.0546875 38.08984375 C98.19251886 42.27778725 102.38775077 46.30767045 106.859375 50.13671875 C109.33186486 52.28886777 111.72271357 54.51980719 114.125 56.75 C120.47007693 62.5349598 127.20580896 67.75764572 134 73 C136.62905537 75.03650127 139.25293987 77.07950448 141.875 79.125 C142.48835205 79.5986499 143.1017041 80.0722998 143.73364258 80.56030273 C145.17421047 81.68360146 146.58999587 82.83856803 148 84 C148 84.33 148 84.66 148 85 C132.50944448 85.09361006 117.01891023 85.16406067 101.52813816 85.20724869 C94.33482446 85.22783832 87.14168693 85.25588952 79.94848633 85.30175781 C73.67590665 85.34173645 67.40345462 85.36745896 61.13075107 85.37635398 C57.81201292 85.38155027 54.49372309 85.39581324 51.17508125 85.42292023 C47.46228686 85.45203548 43.75024405 85.45595242 40.03735352 85.45410156 C38.94762238 85.46848267 37.85789124 85.48286377 36.73513794 85.49768066 C25.77335036 85.43870713 17.54504858 81.2604471 9.4375 73.9375 C3.46754317 67.83517162 -0.13257683 58.99669001 -0.11352539 50.51879883 C-0.11344986 49.39786331 -0.11337433 48.2769278 -0.11329651 47.12202454 C-0.10813522 45.91257675 -0.10297394 44.70312897 -0.09765625 43.45703125 C-0.0962413 42.21829758 -0.09482635 40.9795639 -0.09336853 39.70329285 C-0.08871602 36.41368463 -0.0797339 33.1241254 -0.06866455 29.83453369 C-0.05842629 26.47628377 -0.05386574 23.11802667 -0.04882812 19.75976562 C-0.03779145 13.17315788 -0.02104767 6.58658295 0 0 Z " fill="#D26D7E" transform="translate(94,327)"/>
<path d="M0 0 C4.45637032 2.35430885 7.50870754 4.54431131 10.3125 8.75 C10.8228118 12.06702672 10.59949603 13.33054426 8.6875 16.125 C6.3125 17.75 6.3125 17.75 3.375 17.8125 C-0.3314575 16.52658617 -1.94394775 14.49355225 -4.6875 11.75 C-7.14290067 10.83308563 -7.14290067 10.83308563 -9.6875 11.75 C-11.28925437 13.22429381 -12.73380823 14.80035574 -14.20703125 16.40234375 C-15.6875 17.75 -15.6875 17.75 -18.375 18.3125 C-21.20424679 17.62430483 -22.15588764 17.24894649 -23.6875 14.75 C-24.1875 11.375 -24.1875 11.375 -23.6875 7.75 C-21.4375 5 -21.4375 5 -18.6875 2.75 C-17.98625 2.1725 -17.285 1.595 -16.5625 1 C-11.3785043 -2.45599713 -5.61432655 -1.90316154 0 0 Z " fill="#080303" transform="translate(224.6875,182.25)"/>
<path d="M0 0 C5.10734212 3.79776722 8.84195556 8.30174308 12.80859375 13.26171875 C15.4627236 16.5781983 18.21832365 19.79037345 21 23 C16.17334961 28.86182347 11.20963992 33.90009745 5.1875 38.5 C4.63682861 38.92071777 4.08615723 39.34143555 3.51879883 39.77490234 C0.79046201 41.80960831 -1.88676379 43.61298919 -5 45 C-4.71253906 44.14535156 -4.42507812 43.29070312 -4.12890625 42.41015625 C-3.03157219 39.09537203 -1.97292235 35.77211113 -0.9375 32.4375 C-0.59589844 31.34308594 -0.25429687 30.24867188 0.09765625 29.12109375 C2.80892931 19.74314063 3.52356834 9.24936689 0 0 Z " fill="#4D5B67" transform="translate(152,327)"/>
<path d="M0 0 C2.875 1.3125 2.875 1.3125 4.875 3.3125 C5.2109375 6.4296875 5.2109375 6.4296875 5.25 10.1875 C5.27835938 11.42242187 5.30671875 12.65734375 5.3359375 13.9296875 C4.875 17.3125 4.875 17.3125 3.08203125 19.765625 C0.875 21.3125 0.875 21.3125 -2.8125 21.1875 C-3.905625 20.89875 -4.99875 20.61 -6.125 20.3125 C-7.69814184 17.16621632 -7.39196326 13.82668512 -7.4375 10.375 C-7.46650391 9.64603516 -7.49550781 8.91707031 -7.52539062 8.16601562 C-7.58893636 2.83306242 -7.58893636 2.83306242 -5.30078125 0.265625 C-3.125 -0.6875 -3.125 -0.6875 0 0 Z " fill="#000101" transform="translate(12.125,161.6875)"/>
<path d="M0 0 C3.4375 0.8125 3.4375 0.8125 5.4375 2.8125 C5.7734375 5.4921875 5.7734375 5.4921875 5.8125 8.6875 C5.84085937 9.73679688 5.86921875 10.78609375 5.8984375 11.8671875 C5.3330906 15.47965836 4.34313653 16.65417646 1.4375 18.8125 C-1.6875 18.75 -1.6875 18.75 -4.5625 17.8125 C-6.86033606 14.36574591 -6.86004883 12.87921888 -6.875 8.8125 C-6.89175781 7.760625 -6.90851563 6.70875 -6.92578125 5.625 C-6.5625 2.8125 -6.5625 2.8125 -5.265625 0.92578125 C-3.5625 -0.1875 -3.5625 -0.1875 0 0 Z " fill="#080303" transform="translate(269.5625,153.1875)"/>
<path d="M0 0 C1.625 1.12109375 1.625 1.12109375 3 3 C3.43359375 6.03125 3.43359375 6.03125 3.4375 9.5 C3.45683594 10.6446875 3.47617188 11.789375 3.49609375 12.96875 C3 16 3 16 1.1328125 17.9140625 C-1 19 -1 19 -3.5625 18.875 C-6.25359133 17.90896721 -7.26806854 17.24855874 -9 15 C-9.82011274 10.16059601 -9.95458488 5.52026481 -7.3125 1.3125 C-4.54871092 -0.25613705 -3.1263916 -0.56114721 0 0 Z " fill="#0A0404" transform="translate(169,153)"/>
</svg>
